<?xml version="1.0" encoding="UTF-8"?>
<svg id="Layer_2" data-name="Layer 2" xmlns="http://www.w3.org/2000/svg" viewBox="0 0 243.19 90.75">
  <defs>
    <style>
      .cls-1 {
        fill: #fff;
      }

      .cls-2 {
        fill: #31bba4;
      }
    </style>
  </defs>
  <g id="Layer_1-2" data-name="Layer 1">
    <g>
      <g>
        <path class="cls-1" d="M45.79,58.41v14.55h-2.51v-14.55h2.51ZM52.55,58.41v2h-7.41v-2h7.41ZM51.73,64.77v1.99h-6.58v-1.99h6.58Z"/>
        <path class="cls-1" d="M57.06,58.41v14.55h-2.51v-14.55h2.51ZM64.03,58.41v2h-7.67v-2h7.67ZM63.07,64.48v1.96h-6.72v-1.96h6.72ZM64.08,70.97v1.99h-7.72v-1.99h7.72Z"/>
        <path class="cls-1" d="M67.59,58.41l2.35,11.19.21,3.36h-1.68l-3.37-14.55h2.49ZM69.76,69.69l2.9-11.28h1.52l-.17,2.91-3.1,11.64h-1.58l.43-3.27ZM74.77,58.41l2.87,11.31.42,3.24h-1.58l-3.05-11.64-.16-2.91h1.5ZM77.47,69.57l2.32-11.16h2.5l-3.37,14.55h-1.68l.23-3.39Z"/>
        <path class="cls-1" d="M94.08,59.96l-8.94,13h-1.68v-1.59l8.97-12.96h1.65v1.55ZM93.15,58.41v2h-9.63v-2h9.63ZM94.31,70.97v1.99h-10.1v-1.99h10.1Z"/>
        <path class="cls-1" d="M102.27,60.35l-4.35,12.61h-2.63l5.48-14.55h1.68l-.18,1.94ZM105.7,67.56v1.99h-7.91v-1.99h7.91ZM105.91,72.96l-4.36-12.61-.19-1.94h1.69l5.5,14.55h-2.64Z"/>
        <path class="cls-1" d="M121.72,58.41v14.55h-2.51l-6.53-10.42v10.42h-2.51v-14.55h2.51l6.55,10.44v-10.44h2.49Z"/>
        <path class="cls-2" d="M132.93,58.41v14.55h-3.51v-14.55h3.51ZM139.23,64.19v2.7h-7.46v-2.7h7.46ZM141.59,58.41v14.55h-3.5v-14.55h3.5Z"/>
        <path class="cls-2" d="M156.12,65.4v.59c0,1.11-.15,2.11-.46,2.99-.31.88-.75,1.64-1.31,2.26-.57.62-1.24,1.1-2.01,1.43-.77.33-1.63.5-2.56.5s-1.8-.17-2.57-.5-1.45-.81-2.02-1.43-1.01-1.38-1.32-2.26-.46-1.88-.46-2.99v-.59c0-1.11.16-2.11.46-3,.31-.89.75-1.64,1.31-2.26.56-.62,1.23-1.1,2.01-1.43.78-.33,1.63-.49,2.57-.49s1.79.17,2.56.49c.78.33,1.45.81,2.01,1.43s1.01,1.38,1.32,2.26c.31.89.47,1.88.47,3ZM152.56,65.98v-.61c0-.72-.06-1.35-.18-1.9-.12-.55-.3-1.01-.54-1.38-.24-.37-.53-.65-.88-.84-.35-.19-.75-.29-1.19-.29s-.87.09-1.22.29c-.35.19-.64.47-.87.84s-.41.83-.52,1.38c-.12.55-.17,1.18-.17,1.9v.61c0,.71.06,1.34.17,1.89.12.55.29,1.01.53,1.39s.53.67.88.86c.35.19.76.29,1.22.29s.84-.1,1.19-.29c.35-.19.64-.48.87-.86s.42-.84.54-1.39c.12-.55.18-1.18.18-1.89Z"/>
        <path class="cls-2" d="M157.94,58.41h2.96l.55,11.15v3.4h-3.51v-14.55ZM159.67,58.41h2.86l3.25,10.12,3.25-10.12h2.86l-4.95,14.55h-2.32l-4.95-14.55ZM170.67,58.41h2.97v14.55h-3.52v-3.4l.55-11.15Z"/>
        <path class="cls-2" d="M179.38,58.41v14.55h-3.51v-14.55h3.51ZM185.92,58.41v2.71h-7.78v-2.71h7.78ZM184.89,64.19v2.61h-6.75v-2.61h6.75ZM185.89,70.26v2.7h-7.75v-2.7h7.75Z"/>
        <path class="cls-2" d="M200.7,68.03h3.5c-.05,1.01-.32,1.91-.82,2.68-.5.77-1.19,1.37-2.07,1.8s-1.92.64-3.12.64c-.97,0-1.84-.16-2.6-.49-.76-.33-1.41-.8-1.94-1.41-.53-.61-.93-1.36-1.21-2.23-.28-.87-.42-1.85-.42-2.95v-.79c0-1.09.15-2.08.43-2.95.29-.88.7-1.62,1.24-2.24s1.18-1.09,1.93-1.41,1.59-.49,2.51-.49c1.27,0,2.33.23,3.21.68.87.45,1.55,1.08,2.03,1.86s.76,1.69.85,2.69h-3.5c-.01-.55-.11-1-.28-1.37-.17-.37-.45-.65-.82-.83s-.87-.28-1.49-.28c-.43,0-.81.08-1.13.24-.32.16-.59.41-.8.76s-.37.79-.47,1.34c-.1.55-.16,1.21-.16,1.98v.81c0,.77.05,1.43.14,1.98.09.55.24.99.45,1.34s.47.6.8.76.73.25,1.21.25c.53,0,.98-.08,1.35-.25.37-.17.65-.43.85-.78.2-.35.31-.8.32-1.34Z"/>
        <path class="cls-2" d="M212.02,61.47l-3.55,11.49h-3.77l5.35-14.55h2.39l-.42,3.06ZM214.82,67.53v2.71h-7.46v-2.71h7.46ZM214.96,72.96l-3.56-11.49-.46-3.06h2.42l5.38,14.55h-3.78Z"/>
        <path class="cls-2" d="M219.79,58.41h5.73c1.12,0,2.09.17,2.92.5.83.33,1.46.83,1.91,1.48.45.65.67,1.46.67,2.42,0,.83-.13,1.53-.39,2.09s-.62,1.02-1.08,1.38c-.46.36-1,.66-1.61.89l-1.15.65h-4.81l-.02-2.71h3.56c.45,0,.82-.08,1.11-.24.29-.16.51-.39.67-.68.15-.3.22-.65.22-1.06s-.08-.78-.23-1.08-.38-.53-.67-.69c-.3-.16-.66-.24-1.09-.24h-2.22v11.84h-3.51v-14.55ZM227.76,72.96l-3.22-6.44,3.72-.02,3.26,6.31v.15h-3.76Z"/>
        <path class="cls-2" d="M236.65,58.41v14.55h-3.51v-14.55h3.51ZM243.19,58.41v2.71h-7.78v-2.71h7.78ZM242.16,64.19v2.61h-6.75v-2.61h6.75ZM243.16,70.26v2.7h-7.75v-2.7h7.75Z"/>
      </g>
      <g>
        <path class="cls-2" d="M22.95,72.8l-1.31-3.4c-4.53-1.25-7.94-3.99-10.06-8.18-.58-1.15-3.64-7.98-3.68-8.77-.02-.47.39-.92.11-1.4-2.04-4.76-4.38-9.42-6.37-14.2C-1.46,29.39-.47,21.51,7.08,17.34c.82-.45,2-.78,2.69-1.22.46-.29.78-.76,1.36-1.1.92-.53,2.88-1.43,3.9-1.24,2.36.43,2.33,6.17-.36,6.01-1.16-.07-3.52-1.43-4.07-1.38-.9.08-3.93,2.02-4.66,2.71-8.89,8.43,1.78,20.43,4.45,29.28,2.88,3.02,3.34,7.96,5.91,11.31,4.84,6.3,14.44,5.5,18.25-1.42,1.53-2.79,2.49-6.19,4-9.03l.94-.8c1.99-5.58,5.32-11.07,7.26-16.6,2.32-6.6-.93-13.29-7.55-15.45-1.32.43-3.59,1.89-4.93,1.15s-1.38-4.18-.41-5.25c.87-.96,2.02-.51,3.05-.14,1.62.58,3.07,1.66,4.61,2.48,2.19,1.17,4.03,2.26,5.57,4.27,7.55,9.89-2.02,20.7-5.27,30.3,0,.66.2,1.2.02,1.89-.46,1.74-2.55,6.07-3.43,7.86-2.09,4.27-5.52,7.31-10.22,8.38-1.18,2.52-1.19,5.27-4.6,5.61-4.88.48-10.46-.41-15.42.07-2.49.66-2.58,3.79-.24,4.75l108.58.11c2.8.25,4.54,3.07,3.36,5.68s-4.1,2.08-6.52,2.16c-.46.53-.53,1.16-1.03,1.72-2.22,2.43-6.72,1.31-7.15-1.97-.72-5.46,6.51-6.84,8.12-1.82,1.31-.08,3.36.42,4.38-.57,1.12-1.09.32-2.85-1.14-3.03H8.41c-3.81-.44-5.79-4.95-2.97-7.84.55-.57,2.04-1.42,2.82-1.42h14.69ZM110.61,85.15c-1.66-1.67-4.64.9-2.92,2.85,1.83,2.08,4.91-.86,2.92-2.85Z"/>
        <path class="cls-2" d="M76.65,23.88c-1.42-.03-2.85.04-4.28,0-6.47-.13-12.98-.23-19.45-.52L26.07.89l-11.75,9.07-.48.17c-.06-1.34.97-1.77,1.9-2.52,3.27-2.63,6.7-5.09,10.06-7.61l23.11.61c7.2,5.85,14.35,11.79,21.45,17.77,2.13,1.79,4.28,3.61,6.3,5.49Z"/>
        <path class="cls-2" d="M27.59,33.87c-.4.98-.42,2.14-.02,3.11-.68.87-2.01-1.21-2.44-.8-.08,1.64-.71,3.36-2.55,3.61-.45.06-1.01-.08-1.41.04-.36.11-.82.88-1.69,1.06-2.14.45-3.57-.99-3.77-3.05-.28-2.8.15-6.01,3.54-6.3,1.16-.1,3.53-.15,4.5.44,1.3.79,1.16,2.62,1.58,2.85.84-.11,1.13-1.22,2.25-.97ZM19.63,33c-.67-.08-1.25.44-1.52,1.01-.48,1-.89,5.89.98,5.33.12-.04.54-.44.54-.48v-5.86ZM21.65,33v5.14c0,.4.85.07,1.08-.22.57-.73.57-3.54.13-4.33-.25-.45-.7-.69-1.22-.59Z"/>
        <path class="cls-2" d="M30.77,31.55v3.76c.64-.09,1.52.23,2.03-.22v-3.55h2.03v9.41h-2.03v-4.05h-2.03v2.03h-2.03v-7.38h2.03Z"/>
        <path class="cls-2" d="M14.27,31.55c-.04,1.68-.58,3.7-2.17,4.49v.21c1.14.9,1.54,2.11.72,3.4.36-.04.88.09,1.21-.02.27-.09.82-1.31,1.69-.99l.15,3.18c-.76.44-1.59-.84-1.69-.87-.93-.23-3.03.12-4.17,0-1.64-.16-2.6-1.29-2.38-2.95.31-2.29,3.92-2.49,4.49-4.91.09-.39.09-1.5.26-1.62l1.89.08ZM9.82,37.38c-.53.5-.44,1.86.48,1.98,1.99.25.79-3.18-.48-1.98Z"/>
        <polygon class="cls-2" points="26.43 17.66 31.93 17.8 31.78 23.16 26.43 23.16 26.43 17.66"/>
        <path class="cls-2" d="M25.12,23.01l-5.5-.14.14-5.36,5.5.15c.07.05-.14.19-.14.22v5.14Z"/>
        <path class="cls-2" d="M26.57,11l5.5.14-.15,5.36h-5.14c-.06,0-.22-.19-.36-.15-.05-.15.15-.31.15-.36v-4.99Z"/>
        <path class="cls-2" d="M25.27,11v5.35h-4.99s-.5-.17-.52-.23l.15-5.27,5.36.15Z"/>
        <path class="cls-2" d="M41.04,34.44h2.1c.51,0-.22,1.42-.34,1.69-.64,1.55-1.42,3.04-2.07,4.59-.36.46-1.63.2-2.15.16l2.17-4.99h-1.52c-.18-.61.18-2.6-.6-2.87-.94-.33-1.24.62-2.04.81-.23.06-.65.18-.61-.17s.35-2.01.48-2.12c.22-.18,1.93-.03,2.32.03,1.83.3,2.35.99,2.26,2.88Z"/>
      </g>
    </g>
  </g>
</svg>