<?xml version="1.0" encoding="UTF-8"?>
<svg id="Layer_2" data-name="Layer 2" xmlns="http://www.w3.org/2000/svg" viewBox="0 0 156.77 39.71">
  <g id="Layer_1-2" data-name="Layer 1">
    <g>
      <path d="M156.77,25.49c-.66.76-1.22,1.59-1.86,2.36-1.32,1.59-3.89,4.56-5.86,5.15-1.48.44-3.38.16-3.59-1.67-.33-2.83,2.89-6.62,4.09-9.14s.6-3.88-2.19-2.34c-3.39,1.88-6.74,6.8-8.77,10.06-.49.79-1.05,2.07-1.6,2.74-.66.81-2.15.65-1.82-.58,1.23-2.75,2.74-5.39,3.93-8.16.6-1.41,2.6-5.84-.92-4.48-3.22,1.24-7.37,7.61-9.21,10.56-.44.7-1.37,2.7-2.01,3.03-.75.39-1.62-.03-1.34-.95,1.48-3.26,3.49-6.52,4.67-9.9.28-.81,1.23-3.51-.57-2.81-1.68.65-5.59,6.13-7.02,7.79-1.61,1.87-4.46,5.19-6.84,5.87-2.93.84-4.18-1.03-3.85-3.77l.57-2.37c-1.84,1.94-4.51,5.7-7.25,6.24-1.73.34-3.27-.48-3.18-2.4.12-2.53,3.01-6.06,4.2-8.36.38-.73,1.54-3.18-.12-3.14-2.14.04-5.85,3.98-7.22,5.57-2.14,2.49-3.99,5.24-5.67,8.05-.32.49-1.54.35-1.71-.15-.15-.44.27-1.5.43-1.98.42-1.29,1.03-2.53,1.4-3.83-1.8,1.88-4.87,5.91-7.58,6.26-3.82.49-3.15-3.37-2.19-5.71-2.02,2.13-5.22,6.08-8.49,5.81-2.04-.17-2.61-2.14-2.44-3.91l.35-1.82c-1.88,1.99-4.93,5.74-7.91,5.74-3.69,0-2.43-4.64-1.14-6.57l3.27-4.91h-1.51c-.34,0-1.21-.25-1.57-.37-.17-.05-.89-.4-.95-.37-1.76,2.23-3.37,4.64-5.97,5.97-1.48.76-2.92.95-4.58,1.01-1.67,2.83-5.34,6.51-8.96,5.23-1.79-.63-2.85-2.5-3.49-4.18-.18,1.1-.46,2.25-.26,3.37.09.92-1.1.85-1.47.22-.52-.9-.03-3.26.17-4.3,1.27-6.71,5.9-16.79,10.22-22.1,1.36-1.67,4.78-5.16,7.13-3.56s-.03,5.69-1.25,7.34c-3.24,4.37-7.73,7.52-12.01,10.78-1.28,2.95-2.69,5.66-1.07,8.82,2.05,3.99,5.29,2.84,7.78.05.27-.31,1.33-1.61,1.42-1.92.02-.06.02-.12.01-.18-3.32-1.04-4.63-4.73-2.88-7.72.98-1.69,2.99-2.38,4.77-1.49,2.91,1.46,1.79,6.18.51,8.43,4.14.17,6.72-3.27,8.91-6.25l.05-.18c-1.23-1-1.46-2.67-.73-4.05,1.35-2.53,5.01-1.83,3.75,1.49-.3.78-.86,1.42-1.2,2.17.99.4,2.07.56,3.14.46.66-.06,1.71-.66,2.17,0,.27.39.22.7.03,1.11-.73,1.51-2.4,3.35-3.35,4.86-.55.88-1.19,1.93-1.5,2.92-.84,2.73.52,3.32,2.76,1.99,5.7-3.41,8.91-12.76,16.11-13.35,1.82-.15,3.77.3,3.83,2.47.55-.57,1.24-2.27,2.06-2.4.89-.14,1.1.49.75,1.21-.57,1.15-1.61,2.45-2.3,3.6-1.13,1.89-3.64,6.16-3.3,8.32.12.75.74.91,1.41.8,2.34-.37,7.11-6.37,8.67-8.31.14-.18.38-.33.5-.51.75-1.14,1.57-3.54,2.22-4.91,2.02-4.19,6.34-13.21,10.43-15.38,2.24-1.19,4.65-.58,4.36,2.34-.33,3.26-4.78,7.67-7.12,9.85s-4.62,3.98-7.06,5.81c-1.28,2.62-2.43,5.3-3.49,8.02.73-.97,1.4-1.98,2.14-2.94,1.93-2.49,6.43-7.73,9.69-7.99.98-.08,2.23.24,2.42,1.37.51,3.06-3.59,7.26-4.62,10.23-.52,1.51-.36,2.99,1.63,2.25,2.38-.89,6.39-6.1,8.08-8.2,1.3-1.6,2.07-3.43,3.31-4.98.35-.43.57-.68,1.17-.58.85.15.56.88.27,1.4-1.68,3.06-4.02,5.72-4.82,9.29-.69,3.06.67,4.13,3.31,2.37,3.98-2.65,6.91-7.83,10.21-11.26.97-1.01,3-2.69,4.42-1.54,1.61,1.31-.29,5.23-.85,6.78,1.87-2.18,3.74-4.93,6.29-6.39,1.07-.62,2.88-1.2,3.94-.31,1.73,1.44-.17,5.27-.85,6.93,1.82-2.19,3.69-4.69,6.13-6.23,3.14-1.98,6.69-1.53,4.99,2.98-.84,2.24-4.57,6.94-4.3,9.02.1.75.65.97,1.34.89,2.34-.26,6.49-5.97,7.96-7.85.09-.12.22-.36.38-.35v1.7ZM43.77,18.67c.06.06.38-.22.46-.28,3.45-2.59,9.76-8.04,11.1-12.15.49-1.49.42-3.28-1.63-2.33-1.83.85-4.01,3.81-5.12,5.5-1.92,2.9-3.42,6.08-4.81,9.26ZM99.07,18.67l1.78-1.35c2.7-2.27,9.36-8.59,9.83-12.03.13-.93.01-1.79-1.15-1.61-1.93.3-4.43,3.88-5.46,5.47-1.94,3.01-3.42,6.31-5.01,9.52ZM63.76,16.06c-1.12.23-1.48,2.5-.64,3.24.15.04.8-1.07.9-1.27.29-.57.98-2.23-.27-1.97ZM83.54,19.16c-4.1.42-8.39,5.85-9.04,9.72-.3,1.81.12,3.52,2.37,2.83,2.74-.85,7.52-6.27,8.87-8.8,1.22-2.29.66-4.04-2.2-3.75ZM51.68,26.58c.76-1.52,2.29-5.69.62-6.93-1.08-.8-2.35.03-2.93,1.02-1.31,2.25-.27,5.25,2.31,5.91Z"/>
      <path d="M45.09,0c.67.19,1.28.53,1.39,1.29.34,2.45-3.06,2.22-4.63,2.14-4.15,8.35-7.54,17.26-13.66,24.43,1.03.61,2.16,1.27,2.78,2.34.22.37.58,1,.25,1.38-.59.67-1.04-.77-1.33-1.15-.57-.74-1.55-1.35-2.39-1.72-4.12,4.64-9.72,9.21-15.91,10.6-.61.14-1.24.21-1.85.36-1.13-.09-2.46.12-3.57,0-5.69-.63-8.78-6.84-3.25-10.34,4.99-3.16,15.72-3.92,21.4-2.72.36.08,2.24.65,2.39.57,3.15-3.95,5.79-8.29,8.12-12.77,1.9-3.65,3.51-7.47,5.62-11-6.05-.18-12.18,3.24-15.39,8.3-1.36,2.15-2.73,6.16-.59,8.25.42.42,1.58.6,1.27,1.33-.23.55-1.54-.2-1.85-.45-3.73-2.96-.63-9.3,1.86-12.09,3.87-4.33,9.59-6.64,15.42-6.43.72-1.02,1.77-2.15,3.08-2.33h.85ZM42.68,2.4c.56.03,2.56,0,2.7-.68.13-.63-.67-.71-1.14-.59-.52.13-1.37.75-1.56,1.26ZM16.53,27.06c-3.86.18-11.82,1.36-14.37,4.47-2.25,2.73-.05,5.78,2.83,6.7,6.98,2.23,15.91-4.49,20.28-9.41.19-.22.42-.49.58-.74-.03-.14-1.88-.57-2.17-.62-2.31-.46-4.8-.51-7.15-.4Z"/>
      <path d="M121.15,12.18c2.15-.4,1.67,2.84-.29,2.43-1.26-.26-.88-2.21.29-2.43Z"/>
    </g>
  </g>
</svg>