<?xml version="1.0" encoding="UTF-8"?>
<svg id="Layer_2" data-name="Layer 2" xmlns="http://www.w3.org/2000/svg" viewBox="0 0 56.19 38">
  <defs>
    <style>
      .cls-1 {
        fill: #05c4a8;
      }
    </style>
  </defs>
  <g id="Layer_1-2" data-name="Layer 1">
    <path class="cls-1" d="M1.88,38c-.7,0-1.22-.17-1.57-.52-.35-.46-.41-1.1-.17-1.92L12.52,1.74c.35-1.16,1.1-1.74,2.27-1.74h11.33c1.63,0,2.27.76,1.92,2.27l-8.37,33.99c-.35,1.16-1.16,1.74-2.44,1.74H1.88ZM29.95,38c-.7,0-1.22-.17-1.57-.52-.35-.46-.41-1.1-.17-1.92L40.58,1.74c.35-1.16,1.1-1.74,2.27-1.74h11.33c1.63,0,2.27.76,1.92,2.27l-8.37,33.99c-.35,1.16-1.16,1.74-2.44,1.74h-15.34Z"/>
  </g>
</svg>